<?xml version="1.0" encoding="UTF-8"?>
<svg version="1.1" xmlns="http://www.w3.org/2000/svg" width="1378" height="1195">
<path d="M0 0 C6.03720411 5.18111608 11.63386693 10.91816159 13.20703125 18.95703125 C13.39453125 22.58203125 13.39453125 22.58203125 13.20703125 25.95703125 C12.21703125 26.94703125 12.21703125 26.94703125 11.20703125 27.95703125 C5.95782324 27.95703125 3.64193422 25.78310323 -0.0234375 22.453125 C-6.49671259 16.98013525 -14.79148598 16.7224877 -22.875 17.1015625 C-47.42595853 19.7517846 -75.19352819 32.21217253 -92.359375 50.16015625 C-96.61004685 55.48797382 -99.20020254 61.80867812 -99.0625 68.65625 C-97.55626281 81.51383996 -87.41929205 91.27979178 -77.79296875 98.95703125 C-69.68193893 104.85373241 -61.29784133 110.23250706 -52.7019043 115.38665771 C-50.86528295 116.48864309 -49.03288269 117.59739358 -47.20117188 118.70751953 C-42.18434285 121.74355153 -37.16391575 124.7684889 -32.06640625 127.66796875 C-19.05053979 135.09547496 -5.94198081 144.82425067 -1.79296875 159.95703125 C-0.67086388 171.69998921 -2.2361497 180.34632743 -9.10546875 189.89453125 C-14.67957788 196.48023797 -21.65389288 201.21715301 -28.79296875 205.95703125 C-29.3952832 206.35809082 -29.99759766 206.75915039 -30.61816406 207.17236328 C-64.91661363 229.63888481 -108.82388845 240.36269105 -148.93115234 245.58251953 C-152.78665078 246.08706949 -156.63276161 246.64631011 -160.48046875 247.20703125 C-162.25118924 247.45782927 -164.02196524 247.70823963 -165.79296875 247.95703125 C-165.39207031 248.323125 -164.99117188 248.68921875 -164.578125 249.06640625 C-159.82230368 253.59575989 -155.99092911 258.56812401 -152.10546875 263.8515625 C-147.66250831 269.81803809 -142.90687661 275.53495001 -138.02734375 281.1484375 C-117.28584764 305.08147858 -117.28584764 305.08147858 -117.79296875 319.95703125 C-119.23826097 332.12000997 -125.79578483 343.42729554 -130.92675781 354.37646484 C-136.63377621 366.60906862 -142.17359274 379.25643391 -142.79296875 392.95703125 C-142.85613281 393.94832031 -142.91929687 394.93960937 -142.984375 395.9609375 C-144.02098045 426.42376223 -132.94652796 460.02509549 -121.984375 488.171875 C-118.66405426 496.89895482 -116.1123122 505.80827473 -113.61300659 514.79882812 C-112.83669486 517.58695782 -112.0498969 520.37193763 -111.26000977 523.15625 C-109.41136297 529.67307771 -107.56720269 536.19113982 -105.74121094 542.71435547 C-97.39267042 572.39045169 -85.91294661 599.42443468 -63.578125 621.1171875 C-59.12993651 625.70164434 -54.03893237 631.2881764 -53.59765625 637.87036133 C-53.62085938 638.97790771 -53.6440625 640.0854541 -53.66796875 641.2265625 C-53.6834375 642.44537109 -53.69890625 643.66417969 -53.71484375 644.91992188 C-53.76668936 647.47461421 -53.8187705 650.02930178 -53.87109375 652.58398438 C-54.37298905 663.11765139 -54.37298905 663.11765139 -49.79296875 672.14453125 C-38.67098418 678.8640636 -25.96666546 680.33071674 -13.29296875 681.89453125 C-7.67564586 682.64650697 -3.64043581 684.04855101 1.20703125 686.95703125 C1.20703125 687.61703125 1.20703125 688.27703125 1.20703125 688.95703125 C-40.4025141 689.78737694 -40.4025141 689.78737694 -53.2734375 679.484375 C-61.08118952 671.6364803 -64.16041301 661.49781676 -66.23046875 650.89453125 C-69.07645901 637.07115001 -77.00647014 627.54875397 -86.91503906 617.91088867 C-115.30569092 590.28765492 -125.9289107 551.62415523 -137.29931641 514.78027344 C-138.73049397 510.14838633 -140.18524655 505.52420492 -141.6484375 500.90234375 C-143.70641477 494.40106565 -145.7525433 487.89625064 -147.7840271 481.38664246 C-148.91020142 477.77806443 -150.03997803 474.17070901 -151.17822266 470.56591797 C-164.75445315 427.5204035 -169.71531246 390.65496913 -148.29150391 349.04052734 C-144.4545765 341.77526181 -140.48332894 334.58033349 -136.35083008 327.47875977 C-135.67443481 326.30204712 -135.67443481 326.30204712 -134.984375 325.1015625 C-134.58162354 324.41167236 -134.17887207 323.72178223 -133.76391602 323.01098633 C-131.81140224 318.88061207 -131.78769806 315.36475659 -132.79296875 310.95703125 C-140.19488245 292.23207677 -152.58439098 274.90623503 -163.47216797 258.07226562 C-164.37191118 256.631346 -165.22656428 255.16151169 -166.03955078 253.66992188 C-168.37412592 249.27980403 -168.37412592 249.27980403 -172.5859375 246.98046875 C-173.64425781 246.97273438 -174.70257813 246.965 -175.79296875 246.95703125 C-177.10910156 246.88742187 -178.42523438 246.8178125 -179.78125 246.74609375 C-180.48354736 246.71999023 -181.18584473 246.69388672 -181.90942383 246.66699219 C-198.65428225 246.01916442 -198.65428225 246.01916442 -204.35546875 240.45703125 C-205.79296875 237.95703125 -205.79296875 237.95703125 -205.79296875 234.95703125 C-204.48553711 234.86204346 -203.17810547 234.76705566 -201.83105469 234.66918945 C-165.56814005 232.1303685 -165.56814005 232.1303685 -129.79296875 225.95703125 C-128.78637207 225.72757813 -127.77977539 225.498125 -126.74267578 225.26171875 C-100.9628288 219.23192643 -64.37644945 210.32415541 -46.89453125 188.59765625 C-43.42120363 182.97417344 -41.25243247 178.57164156 -42.79296875 171.95703125 C-50.10443505 149.48455907 -75.27327339 136.91051039 -94.26620483 125.78610229 C-114.17093334 114.12057979 -135.49802991 100.781417 -141.79296875 76.95703125 C-143.36878848 60.6182688 -139.21310312 48.74629058 -128.79296875 35.95703125 C-128.23738281 35.24933594 -127.68179688 34.54164063 -127.109375 33.8125 C-101.85198413 3.10387368 -36.22647685 -26.49852782 0 0 Z " fill="#F76604" transform="translate(634.79296875,421.04296875)"/>
<path d="M0 0 C9.93545598 3.65579471 20.09242985 3.15013448 30.54296875 3.0703125 C50.68088981 2.95411275 66.73011665 4.69553842 82.1875 19.05859375 C101.06068932 39.78274384 103.52699484 67.75974611 102.41796875 94.5078125 C99.65379646 132.43172216 81.59197577 172.397843 57.41796875 201.5078125 C56.93005859 202.09723633 56.44214844 202.68666016 55.93945312 203.29394531 C31.43496277 232.73358398 -4.23600032 260.10802337 -43.58203125 264.5078125 C-63.50065561 266.02156037 -82.82149345 264.25159995 -98.77734375 250.92578125 C-101.84100973 248.24067443 -104.72017488 245.40667564 -107.58203125 242.5078125 C-108.33484375 241.75371094 -109.08765625 240.99960937 -109.86328125 240.22265625 C-126.81573071 222.25957999 -130.80692669 198.25419765 -131.58203125 174.5078125 C-131.63488281 173.23550781 -131.68773437 171.96320313 -131.7421875 170.65234375 C-132.9731625 117.29225357 -102.08292831 63.64137583 -66.28125 25.87036133 C-49.70373491 8.85439107 -24.77111119 -10.16389487 0 0 Z M-26.04833984 49.15820312 C-42.21963071 68.19604975 -55.81651002 91.51038614 -53.87890625 117.22216797 C-53.05473057 123.56750735 -50.82842687 129.54934018 -48.58203125 135.5078125 C-48.25203125 136.4978125 -47.92203125 137.4878125 -47.58203125 138.5078125 C-52.49089661 137.67580142 -54.80592073 137.25017908 -58.45703125 133.7578125 C-66.98089033 120.72132215 -63.71111543 99.48753471 -63.58203125 84.5078125 C-85.20126335 101.03655874 -93.44159417 142.04723075 -97.20263672 167.26464844 C-99.80382573 189.50029501 -98.1566864 210.52949437 -84.703125 229.1015625 C-76.8910476 238.57074723 -66.35026106 243.26911553 -54.64453125 246.2578125 C-30.63557614 248.2177272 -7.1500938 239.31120966 11.73046875 224.6328125 C13.66843508 222.9549955 15.550999 221.26141683 17.41796875 219.5078125 C18.11293457 218.85522461 18.80790039 218.20263672 19.52392578 217.53027344 C34.47202903 203.33535708 47.11353713 188.38022916 57.41796875 170.5078125 C58.12775403 169.33523926 58.83873619 168.16338986 59.55078125 166.9921875 C70.00351235 149.48690083 77.33922591 130.2135088 82.41796875 110.5078125 C82.92650391 108.620625 82.92650391 108.620625 83.4453125 106.6953125 C88.58191202 84.34992103 87.45165554 59.05977414 76.4609375 38.671875 C69.40523904 27.74431142 59.95956131 21.48400389 47.41796875 18.5078125 C19.05953203 15.77172866 -7.30370335 28.06034386 -26.04833984 49.15820312 Z " fill="#F76604" transform="translate(795.58203125,432.4921875)"/>
<path d="M0 0 C9.32497022 0.53210227 18.37885498 1.7575052 27.5625 3.4375 C28.80580078 3.65470703 30.04910156 3.87191406 31.33007812 4.09570312 C41.65643285 5.95545225 41.65643285 5.95545225 45 8 C49.83684417 15.47655978 52.33951143 26.18044454 51 35 C49.30614838 40.64827101 47.26692475 46.16139196 44.86328125 51.546875 C43.83673785 54.46393045 43.62819191 56.90861591 43.5625 60 C43.52253906 61.010625 43.48257813 62.02125 43.44140625 63.0625 C45.19793256 75.44416798 52.35521531 86.98233882 58.0625 97.9375 C58.92267006 99.60042729 59.78253035 101.26351484 60.64208984 102.92675781 C65.47773139 112.26228962 70.40737736 121.5390354 75.50219727 130.73608398 C80.00532227 138.90369217 84.24993965 147.19898457 88.5 155.5 C93.71279244 165.68073466 98.99644637 175.80324935 104.54296875 185.80761719 C107.33988963 190.87751259 110.03502927 195.98948962 112.6484375 201.15625 C121.40550941 218.45036688 130.99275084 234.38234503 142.64550781 249.90014648 C146.92998416 255.70489633 150.70897357 261.80299913 154.5 267.9375 C167.29488014 288.62586653 181.69171896 307.62131696 197.09375 326.43359375 C199.55900041 329.44729851 201.97208243 332.4987801 204.375 335.5625 C214.89137695 348.59933093 228.28726802 358.21663189 245.1875 360.75 C252.32952776 361.21832969 259.17128725 361.09726218 266.234375 359.90625 C267.38205353 359.71295105 267.38205353 359.71295105 268.55291748 359.51574707 C278.36932068 357.72888059 287.77937792 354.58254791 297.25 351.5 C319.90260612 344.18475933 340.15049862 339.16251374 364 343 C365.05349823 373.5514487 350.63401009 404.64143206 333.32470703 429.11816406 C331.66803553 431.47157798 330.03586069 433.84139432 328.40234375 436.2109375 C321.10404765 446.7777902 313.714506 457.27267566 306.15234375 467.65234375 C303.97175069 470.64700677 301.82251713 473.66134041 299.69140625 476.69140625 C291.7428719 487.95007913 283.5773543 498.2872826 273.01953125 507.25390625 C265.79332928 513.50170564 259.95442086 520.21134529 254.53955078 528.02416992 C250.11137229 534.37494936 245.34520083 538.98192829 239.25 543.6875 C230.32560229 550.72170758 223.23945495 559.49085463 216.33178711 568.44482422 C213.27027982 572.41107545 210.11839251 576.28403677 206.90209961 580.12573242 C198.2076023 590.51875634 190.30260579 601.40062441 182.55078125 612.5078125 C181.85339844 613.49523437 181.15601563 614.48265625 180.4375 615.5 C179.56931641 616.75296875 179.56931641 616.75296875 178.68359375 618.03125 C176.92032143 620.09317401 175.49597686 620.99505527 173 622 C179.70379918 587.14024427 211.71947354 555.88710223 234.1171875 529.58178711 C236.95053117 526.25188339 239.74019169 522.89104106 242.5 519.5 C246.24787798 514.8954642 250.06983444 510.35980809 253.9140625 505.8359375 C257.56887165 501.52775465 261.1494757 497.16310148 264.7109375 492.77734375 C266.70154036 490.36212424 268.73243648 487.98850971 270.78076172 485.62231445 C277.99930302 477.24613204 284.58656813 468.41783599 291.14208984 459.51806641 C292.8937234 457.144039 294.65865269 454.78047028 296.42578125 452.41796875 C313.89698091 428.87422484 333.3284417 400.11097328 336.54296875 370.24609375 C336.62957764 369.44743896 336.71618652 368.64878418 336.80541992 367.82592773 C336.90173706 366.92209351 336.90173706 366.92209351 337 366 C323.21549335 366.6961872 311.24489969 370.20494654 298.29589844 374.82958984 C292.44730498 376.90649037 286.56828547 378.89151584 280.6875 380.875 C279.58543213 381.25599854 278.48336426 381.63699707 277.34790039 382.02954102 C259.93435438 387.92761351 240.9777829 390.16224838 223.73046875 382.55859375 C204.67353372 372.9968487 187.73298809 353.89117792 175 337 C174.00403629 335.71893739 173.00650585 334.43909202 172.0078125 333.16015625 C157.80964515 314.89629444 145.38335548 295.86193285 133.41796875 276.078125 C132.21652237 274.093522 131.01470118 272.10914586 129.8125 270.125 C129.22460693 269.1541748 128.63671387 268.18334961 128.03100586 267.18310547 C124.69824784 261.70589166 121.28242382 256.30861775 117.6875 251 C108.07800316 236.78433024 100.18643816 222.32722725 94 206.3125 C90.90547502 198.35909977 86.91151865 191.15277513 82.01171875 184.1640625 C74.24916475 172.89629673 69.0979147 160.39929063 63.68945312 147.89208984 C62.06188929 144.13194902 60.40029559 140.38784078 58.734375 136.64453125 C27.13299225 65.37468209 27.13299225 65.37468209 28 45 C28.61488281 44.66226563 29.22976563 44.32453125 29.86328125 43.9765625 C30.67152344 43.53054687 31.47976563 43.08453125 32.3125 42.625 C33.11300781 42.18414062 33.91351562 41.74328125 34.73828125 41.2890625 C36.53527943 40.26486665 38.27900708 39.14732862 40 38 C41.12302809 31.51476574 40.47316637 24.83236318 37.44921875 18.96484375 C30.52869925 9.58203699 16.61491665 6.74124652 6.00390625 4.02734375 C3.02425496 3.00829526 2.04995834 2.24294047 0 0 Z " fill="#35C834" transform="translate(710,87)"/>
<path d="M0 0 C12.54 0 25.08 0 38 0 C38 15.18 38 30.36 38 46 C50.54 46 63.08 46 76 46 C76 30.82 76 15.64 76 0 C88.87 0 101.74 0 115 0 C115.33 27.39 115.66 54.78 116 83 C119.96 78.545 119.96 78.545 124 74 C126.828125 72.0625 126.828125 72.0625 129.25 71 C130.05953125 70.62875 130.8690625 70.2575 131.703125 69.875 C140.57104871 66.49674335 149.82556261 67.15269636 158.52734375 70.74609375 C166.79155808 74.93695125 170.81895935 81.3905165 174.11328125 89.86328125 C176.7804395 99.29820667 175.59005084 109.39195213 171 118 C166.39496039 125.13353616 160.1377454 128.97571188 152.15234375 131.609375 C144.52754365 132.99318627 135.39010173 133.37839631 128.6328125 129.1953125 C128.09398437 128.80085937 127.55515625 128.40640625 127 128 C125.948125 127.236875 124.89625 126.47375 123.8125 125.6875 C121 123 121 123 116 116 C115.67 121.94 115.34 127.88 115 134 C102.13 134 89.26 134 76 134 C76 116.18 76 98.36 76 80 C63.46 80 50.92 80 38 80 C38 97.82 38 115.64 38 134 C25.46 134 12.92 134 0 134 C0 89.78 0 45.56 0 0 Z " fill="#F86604" transform="translate(943,715)"/>
<path d="M0 0 C9.02636149 7.15475373 17.8006833 15.60478312 19.5 27.5 C19.43680876 31.67852087 17.83535697 34.72782802 16 38.4375 C13.37367641 43.820841 11.65263069 48.03642627 13 54 C16.37703438 63.57813845 24.9397865 67.62261699 33.54003906 71.76196289 C41.40374064 75.58723276 48.66013729 80.26673414 56 85 C74.1613324 97.87694904 74.1613324 97.87694904 95 103 C98.51635432 101.24182284 101.32405058 98.94227839 104.2487793 96.33227539 C117.7195146 84.31692632 133.50347644 73.55965272 152.13671875 73.7109375 C156.51481042 74.15292765 160.32282629 75.58357156 164 78 C164.66 78.99 165.32 79.98 166 81 C165.36610352 81.07516846 164.73220703 81.15033691 164.07910156 81.2277832 C136.52485252 83.60284256 136.52485252 83.60284256 114.5546875 98.77734375 C112.30234064 101.99740747 110.33615451 105.35120916 108.45703125 108.80078125 C106.83010693 111.25643377 105.49827342 112.44794285 103 114 C95.75688371 115.17281137 89.15823651 113.60458063 82.4375 111 C81.52838867 110.6582373 80.61927734 110.31647461 79.68261719 109.96435547 C11.45491225 83.4437664 11.45491225 83.4437664 -4 58.8125 C-6.44529601 49.48980898 -5.15174773 40.76016488 -2.625 31.625 C-1.76366775 28.00740454 -1.7785877 25.52054134 -3 22 C-8.41417252 16.03052773 -17.16273126 12.47221824 -25.18798828 11.82299805 C-38.41472402 11.48277355 -50.30134059 12.24795349 -63 16 C-63.87930176 16.25297852 -64.75860352 16.50595703 -65.66455078 16.76660156 C-84.17716743 22.21055246 -101.86771525 29.7286748 -119.60644531 37.26000977 C-142.63369379 46.99945889 -161.48844628 51.20953938 -186.51367188 48.71166992 C-202.2704255 47.18940269 -217.58848753 47.49757953 -231 57 C-236.88909207 61.99356072 -241.67687155 67.9208957 -246.49609375 73.921875 C-258.12520427 88.21787982 -270.63956171 101.71163622 -283.61282349 114.78805542 C-285.01794332 116.20506626 -286.41907324 117.62603007 -287.82006836 119.04711914 C-293.90297998 125.13768841 -300.27922093 130.6301608 -307 136 C-309.41519864 138.01942958 -311.80416209 140.06812256 -314.1875 142.125 C-314.77990479 142.63579102 -315.37230957 143.14658203 -315.98266602 143.67285156 C-317.14055536 144.67171544 -318.29804912 145.67103812 -319.45507812 146.67089844 C-320.77004037 147.80216495 -322.09493747 148.92186671 -323.421875 150.0390625 C-327.25955161 153.29662521 -330.66157288 156.69380055 -333.91015625 160.5390625 C-335.53899984 162.45713999 -337.19083166 164.33866099 -338.87109375 166.2109375 C-363.6005779 193.93736082 -388.95537368 229.37549534 -394 267 C-394.66 267 -395.32 267 -396 267 C-397.78117991 218.57829437 -370.56360618 179.30067166 -339 145 C-337.45735073 143.27170989 -335.91569143 141.54253566 -334.375 139.8125 C-331.2383449 136.32188209 -328.00778948 132.97803478 -324.66015625 129.69140625 C-322.95986377 127.95910826 -321.38666988 126.15977887 -319.8125 124.3125 C-316.7038186 120.69857016 -313.38861358 117.34740988 -310 114 C-306.09716523 110.13965891 -302.33262537 106.23890349 -298.7734375 102.0546875 C-296.57186672 99.50396893 -294.2845271 97.03911947 -292 94.5625 C-289.07728485 91.37328915 -286.3457924 88.19112804 -283.8125 84.6875 C-276.42033264 74.95360587 -266.37393156 66.9909498 -256.87890625 59.40625 C-253.27633283 56.39514386 -249.8578843 53.21498263 -246.4375 50 C-245.79401611 49.39607422 -245.15053223 48.79214844 -244.48754883 48.16992188 C-241.70884531 45.55784819 -238.93641276 42.93957456 -236.171875 40.3125 C-224.82145491 29.7473291 -213.81485716 24.39816533 -198.19140625 24.8125 C-197.18520737 24.82385986 -196.17900848 24.83521973 -195.14231873 24.84692383 C-190.89167456 24.89526047 -186.64194395 24.97905445 -182.3918457 25.06152344 C-150.11815176 25.63225191 -124.7712426 17.34502932 -95.23583984 4.82861328 C-85.30710706 0.62204141 -75.38574186 -2.94367704 -65 -5.875 C-63.47802002 -6.30474121 -63.47802002 -6.30474121 -61.92529297 -6.74316406 C-40.19309811 -12.64591089 -19.13870063 -13.73791662 0 0 Z " fill="#35C834" transform="translate(470,11)"/>
<path d="M0 0 C12.973125 -0.0825 25.94625 -0.165 39.3125 -0.25 C45.42712769 -0.30462402 45.42712769 -0.30462402 51.6652832 -0.36035156 C56.69372559 -0.37841797 56.69372559 -0.37841797 59.05754089 -0.3817749 C60.68710211 -0.38786456 62.3166468 -0.4018221 63.9460907 -0.42230225 C76.84457991 -0.57613112 88.59365881 0.10185072 98.55078125 9.45703125 C106.83305803 18.23254536 108.50572545 29.42143589 108.27734375 41.0703125 C107.4879451 52.25531309 102.78604347 60.83774781 94.5625 68.25 C91.25599757 70.9512944 87.7668874 73.00124342 84 75 C84.74443359 75.47566406 84.74443359 75.47566406 85.50390625 75.9609375 C97.36544237 84.10870994 102.33324993 97.28622658 108 110 C108.42200684 110.94665527 108.84401367 111.89331055 109.27880859 112.86865234 C110.55121239 115.74103316 111.81045155 118.61869296 113.0625 121.5 C113.45679199 122.40210205 113.85108398 123.3042041 114.25732422 124.23364258 C114.61713379 125.07435303 114.97694336 125.91506348 115.34765625 126.78125 C115.66742432 127.52439453 115.98719238 128.26753906 116.31665039 129.03320312 C117 131 117 131 117 134 C103.14 134 89.28 134 75 134 C69.45688997 123.6066687 64.25084752 113.29819364 59.41650391 102.59155273 C58.59964615 100.78696147 57.77645356 98.98524197 56.953125 97.18359375 C56.48036133 96.13743896 56.00759766 95.09128418 55.52050781 94.01342773 C53.1397943 89.29519606 50.72408461 84.62449145 46 82 C43.36 81.34 40.72 80.68 38 80 C38 97.82 38 115.64 38 134 C25.46 134 12.92 134 0 134 C0 89.78 0 45.56 0 0 Z M38 28 C38 36.58 38 45.16 38 54 C46.52518688 54.03183311 46.52518688 54.03183311 54.8125 53.1875 C56.39998047 52.96126953 56.39998047 52.96126953 58.01953125 52.73046875 C61.96966805 51.76234872 64.80005755 50.07581048 67.8125 47.375 C69.67929499 43.64141002 69.51935444 40.08900183 69 36 C67.62959228 32.29183794 66.52627985 31.29043369 63.0625 29.37890625 C58.16900057 27.37359189 53.26678321 27.67485063 48.0625 27.8125 C44.741875 27.874375 41.42125 27.93625 38 28 Z " fill="#35C934" transform="translate(816,861)"/>
<path d="M0 0 C34.65892964 7.06695263 66.95061272 24.35468077 92.95898438 48.11743164 C94.65060632 49.65909643 96.35675963 51.18494858 98.07617188 52.69555664 C103.3151831 57.30842281 108.00895641 62.04666565 112.47070312 67.40649414 C113.20675781 68.2430957 113.9428125 69.07969727 114.70117188 69.94165039 C147.35858357 107.68718028 163.57938182 156.54934039 163.7109375 206.0690918 C163.72066027 208.27178499 163.75181624 210.47354863 163.78320312 212.67602539 C163.96716691 237.48166099 163.96716691 237.48166099 156.47070312 245.40649414 C151.68634356 248.74441942 147.12315289 249.23858065 141.47070312 248.40649414 C137.72489231 247.35608159 134.61905124 245.94327432 132.24658203 242.76831055 C129.32317594 237.18331752 128.94933112 232.5174078 129.15820312 226.28149414 C129.17222168 225.35280518 129.18624023 224.42411621 129.20068359 223.46728516 C129.30002643 218.39948164 129.60964695 213.39057738 130.09570312 208.34399414 C133.18093792 169.68781704 117.37308674 127.25450809 93.27539062 97.44946289 C88.43013064 91.96446078 83.20768588 86.8940778 77.68164062 82.10180664 C72.60232401 77.68817074 67.76199891 73.03217414 62.9140625 68.36743164 C55.08906971 60.92326953 47.16243516 54.83571152 37.53320312 49.90649414 C36.62078857 49.43655029 35.70837402 48.96660645 34.76831055 48.48242188 C21.09793979 41.56478481 7.67860299 36.86942081 -7.32128906 33.8581543 C-10.99030704 33.10763647 -14.63640563 32.27411209 -18.27929688 31.40649414 C-19.53226563 31.11774414 -20.78523438 30.82899414 -22.07617188 30.53149414 C-26.87084188 28.9694297 -30.41019816 26.93592905 -33.40429688 22.84399414 C-35.41483022 16.70069782 -35.72021027 10.83242883 -32.84179688 4.96899414 C-23.95456494 -4.87901963 -12.02187017 -2.26568111 0 0 Z " fill="#35C934" transform="translate(1150.529296875,589.593505859375)"/>
<path d="M0 0 C32.34 0 64.68 0 98 0 C98 9.9 98 19.8 98 30 C78.2 30 58.4 30 38 30 C38 36.6 38 43.2 38 50 C56.48 50 74.96 50 94 50 C94 58.91 94 67.82 94 77 C75.52 77 57.04 77 38 77 C38 85.25 38 93.5 38 102 C58.79 102 79.58 102 101 102 C101 112.56 101 123.12 101 134 C67.67 134 34.34 134 0 134 C0 89.78 0 45.56 0 0 Z " fill="#F86604" transform="translate(697,715)"/>
<path d="M0 0 C13.86 0 27.72 0 42 0 C50.99464473 26.31138273 59.97699677 52.62675992 68.8829155 78.96832466 C70.5690448 83.95524111 72.25770817 88.94127183 73.95166016 93.92553711 C75.63297774 98.87282899 77.30844423 103.82206521 78.97967911 108.77277184 C79.60835895 110.63183412 80.23911396 112.49019606 80.87203598 114.34781837 C81.74308222 116.90555076 82.60658572 119.46570974 83.46826172 122.02661133 C83.72678925 122.78003311 83.98531677 123.5334549 84.25167847 124.30970764 C85.40354953 127.7580267 86 130.32058779 86 134 C72.8 134 59.6 134 46 134 C42 121 42 121 41 112 C27.47 112 13.94 112 0 112 C-0.33 114.64 -0.66 117.28 -1 120 C-2.32 124.62 -3.64 129.24 -5 134 C-17.54 134 -30.08 134 -43 134 C-41.8748558 122.74855796 -41.8748558 122.74855796 -40.68408203 119.11816406 C-40.41891281 118.29360214 -40.15374359 117.46904022 -39.88053894 116.61949158 C-39.44853935 115.33057762 -39.44853935 115.33057762 -39.0078125 114.015625 C-38.7063179 113.09064713 -38.4048233 112.16566925 -38.0941925 111.21266174 C-37.11525568 108.22143203 -36.1207772 105.23566158 -35.125 102.25 C-34.43596743 100.15985213 -33.74724944 98.06960054 -33.05883789 95.97924805 C-28.99434349 83.69481815 -24.72023855 71.51835014 -20.1550293 59.41137695 C-15.20550492 46.15151729 -10.92082077 32.67340231 -6.59350586 19.20043945 C-6.30290283 18.29663544 -6.0122998 17.39283142 -5.71289062 16.4616394 C-5.16673629 14.76062922 -4.62243474 13.05902261 -4.08032227 11.35671997 C-3.83523926 10.59181244 -3.59015625 9.82690491 -3.33764648 9.03881836 C-3.12655746 8.37651718 -2.91546844 7.714216 -2.69798279 7.03184509 C-1.8823372 4.65748069 -0.93239655 2.33099136 0 0 Z M20 40 C18.4284248 45.49785336 16.86197926 50.9971322 15.30029297 56.49780273 C14.76817709 58.36929875 14.23465566 60.24039572 13.69970703 62.11108398 C12.9315291 64.79828155 12.16839866 67.48686835 11.40625 70.17578125 C11.16563843 71.01337479 10.92502686 71.85096832 10.67712402 72.71394348 C10.45689575 73.49452621 10.23666748 74.27510895 10.00976562 75.0793457 C9.81435181 75.76551468 9.61893799 76.45168365 9.41760254 77.15864563 C8.88941284 79.17293133 8.88941284 79.17293133 9 82 C16.59 82 24.18 82 32 82 C28.85384878 67.8152907 25.69838463 53.76252489 21 40 C20.67 40 20.34 40 20 40 Z " fill="#35C934" transform="translate(1167,861)"/>
<path d="M0 0 C1.77206192 0.00015919 3.54412846 0.00585754 5.31616211 0.01586914 C6.24698105 0.01728409 7.17779999 0.01869904 8.13682556 0.02015686 C11.12241777 0.02577367 14.10793615 0.03832899 17.09350586 0.05102539 C19.11238499 0.05603823 21.13126529 0.06060151 23.15014648 0.06469727 C28.11046158 0.07574856 33.07072118 0.09302444 38.03100586 0.11352539 C48.99204042 32.8857261 59.92726298 65.66428244 70.55297852 98.54711914 C71.76141559 102.28479469 72.97778088 106.01982491 74.19764709 109.75378418 C74.86348431 111.79311068 75.52739034 113.83305332 76.19042969 115.87329102 C76.97236182 118.27923603 77.75712553 120.68426359 78.54541016 123.08813477 C79.04488159 124.63210938 79.04488159 124.63210938 79.55444336 126.20727539 C79.8423877 127.09092773 80.13033203 127.97458008 80.42700195 128.88500977 C81.03100586 131.11352539 81.03100586 131.11352539 81.03100586 134.11352539 C67.83100586 134.11352539 54.63100586 134.11352539 41.03100586 134.11352539 C36.03100586 115.11352539 36.03100586 115.11352539 36.03100586 112.11352539 C22.50100586 112.11352539 8.97100586 112.11352539 -4.96899414 112.11352539 C-5.29899414 115.41352539 -5.62899414 118.71352539 -5.96899414 122.11352539 C-6.94165039 125.71508789 -6.94165039 125.71508789 -8.03149414 128.73852539 C-8.3937207 129.76204102 -8.75594727 130.78555664 -9.12915039 131.84008789 C-9.40629883 132.59032227 -9.68344727 133.34055664 -9.96899414 134.11352539 C-14.21897912 134.14300139 -18.46893717 134.16048182 -22.71899414 134.17602539 C-23.9062207 134.1844043 -25.09344727 134.1927832 -26.31665039 134.20141602 C-33.92201936 134.22219571 -41.40240939 133.88496915 -48.96899414 133.11352539 C-42.66010161 113.41443759 -36.22300197 93.76716667 -29.49472046 74.20706177 C-25.64273924 63.00612683 -21.84798288 51.78784525 -18.11352539 40.54711914 C-17.70179077 39.3081337 -17.29005615 38.06914825 -16.86584473 36.7926178 C-14.82121049 30.63621929 -12.781219 24.47831505 -10.74584961 18.31884766 C-10.00128506 16.07330223 -9.2566592 13.82777713 -8.51196289 11.58227539 C-7.99579155 10.01351906 -7.99579155 10.01351906 -7.4691925 8.41307068 C-7.15354843 7.46279495 -6.83790436 6.51251923 -6.51269531 5.53344727 C-6.23737473 4.70002808 -5.96205414 3.86660889 -5.6783905 3.00793457 C-4.37686717 -0.46772147 -4.16421269 0.11910924 0 0 Z M15.03100586 41.11352539 C13.92005171 45.02155172 12.81780659 48.93192883 11.72290039 52.84448242 C11.35082327 54.16966667 10.97654576 55.49423547 10.59985352 56.81811523 C8.2120607 65.21677851 6.30171733 73.47268741 5.03100586 82.11352539 C12.62100586 82.11352539 20.21100586 82.11352539 28.03100586 82.11352539 C26.6260753 76.75643082 25.22054951 71.39949995 23.81347656 66.04296875 C23.33493092 64.22047092 22.85673866 62.39788027 22.37890625 60.57519531 C21.69225331 57.95621684 21.00433263 55.3375742 20.31616211 52.71899414 C20.1025856 51.90327438 19.88900909 51.08755463 19.66896057 50.24711609 C18.85991878 47.17251302 18.0366824 44.130555 17.03100586 41.11352539 C16.37100586 41.11352539 15.71100586 41.11352539 15.03100586 41.11352539 Z " fill="#35C934" transform="translate(614.968994140625,860.886474609375)"/>
<path d="M0 0 C9.13632503 8.19174954 14.44569511 18.8871412 16 31 C8.55488953 33.47293422 1.08103975 35.55946572 -6.5625 37.3125 C-7.33577637 37.49586914 -8.10905273 37.67923828 -8.90576172 37.86816406 C-15.69554667 39.38031911 -15.69554667 39.38031911 -19 38 C-19.72584174 36.05342442 -20.4457318 34.10404701 -21.11328125 32.13671875 C-22.61930373 28.50766898 -24.69938817 26.12182189 -28 24 C-34.47326882 21.51197491 -40.53365424 21.59218603 -47 24 C-52.90159962 27.11782621 -55.95230129 30.89835959 -58.0859375 37.21484375 C-59.5170924 43.26812972 -59.37202353 49.48486661 -59.37060547 55.67114258 C-59.37496995 57.79785854 -59.41134923 59.92247889 -59.44921875 62.04882812 C-59.52759836 71.55126481 -58.76668979 80.36407411 -52.5625 88 C-51.716875 88.66 -50.87125 89.32 -50 90 C-49.29875 90.598125 -48.5975 91.19625 -47.875 91.8125 C-42.28605074 94.12097904 -36.2714141 93.79920126 -30.625 91.8125 C-22.1967616 85.99300206 -19.08076303 78.71022749 -17 69 C-9.059034 69.46315284 -2.34947364 71.76964438 5.0625 74.5625 C6.79016602 75.19961914 6.79016602 75.19961914 8.55273438 75.84960938 C11.37197391 76.89073933 14.18742835 77.94101812 17 79 C15.58242695 92.91936087 9.44358959 106.79654374 -0.94140625 116.44140625 C-15.7376869 127.64390337 -34.7792662 128.85487832 -52.59375 126.53125 C-64.7412626 123.84601037 -74.35058417 117.78867297 -83 109 C-83.58652344 108.4121875 -84.17304687 107.824375 -84.77734375 107.21875 C-95.01524945 96.17327413 -98.58142726 79.68492703 -99 65 C-99.02578125 64.21850586 -99.0515625 63.43701172 -99.078125 62.63183594 C-99.7434596 39.88570927 -96.73131145 19.7418556 -80.8125 2.3125 C-59.8618422 -17.55774272 -22.52462489 -16.75292401 0 0 Z " fill="#35C934" transform="translate(1102,870)"/>
<path d="M0 0 C9.39238912 7.56326852 16.26389637 18.18758019 19 30 C18.71007407 31.3434403 18.38261177 32.67996321 18 34 C14.19002645 34.9891755 10.37662983 35.96448497 6.5625 36.9375 C4.95858398 37.35418945 4.95858398 37.35418945 3.32226562 37.77929688 C-2.80254505 39.33391243 -8.70089541 40.47673053 -15 41 C-15.21914063 40.33613281 -15.43828125 39.67226563 -15.6640625 38.98828125 C-18.08346027 32.10654195 -18.08346027 32.10654195 -23.04296875 26.90625 C-28.93996169 24.17550676 -35.57506239 23.22127334 -41.875 24.9375 C-47.58129437 27.32114195 -50.67420592 31.11044879 -53.21875 36.65625 C-58.88859047 51.39783522 -59.27799121 70.93099344 -52.828125 85.6796875 C-50.4593743 89.67147109 -47.85090052 93.09495222 -43.27734375 94.546875 C-37.10392815 95.77520469 -30.42525888 95.97010355 -24.5625 93.625 C-18.16839124 87.07493737 -15.11331701 80.02170678 -14 71 C-7.07629424 71.52502034 -1.21163942 73.52937316 5.25 76 C7.19208105 76.73083576 9.13476647 77.46006798 11.078125 78.1875 C11.92793945 78.51105469 12.77775391 78.83460938 13.65332031 79.16796875 C15.75690496 79.913809 17.82598314 80.50322523 20 81 C18.35576764 93.59135831 14.90981297 102.99442462 7 113 C6.24976563 113.9590625 6.24976563 113.9590625 5.484375 114.9375 C-2.14495982 123.56866666 -14.45044966 128.38017266 -25.77148438 129.20092773 C-28.78862965 129.30355684 -31.79368309 129.32892473 -34.8125 129.3125 C-35.87549316 129.30758545 -36.93848633 129.3026709 -38.03369141 129.29760742 C-45.3770117 129.18771122 -52.09821844 128.69445552 -59 126 C-59.81597656 125.70609375 -60.63195312 125.4121875 -61.47265625 125.109375 C-74.35177457 119.63932158 -84.60492839 107.77764349 -90.234375 95.25390625 C-94.67176112 83.91927865 -95.37309904 72.64227584 -95.37060547 60.61328125 C-95.37496749 58.26748351 -95.4113728 55.9235906 -95.44921875 53.578125 C-95.58237941 35.83006132 -91.37362367 19.62621908 -79.0625 6.1875 C-58.01649349 -13.58824 -24.04246361 -15.7133423 0 0 Z " fill="#F86604" transform="translate(907,722)"/>
<path d="M0 0 C3.22730743 1.33990701 4.56303523 2.40232921 6.04296875 5.5625 C6.38948486 6.27204834 6.73600098 6.98159668 7.09301758 7.71264648 C7.45419678 8.46747314 7.81537598 9.2222998 8.1875 10 C16.16486404 25.7620063 29.07572281 35.4119443 43.05859375 45.78515625 C47.82964786 49.37770297 52.43409278 53.15149671 57 57 C57.86753906 57.71929687 58.73507813 58.43859375 59.62890625 59.1796875 C68.3321059 66.64716567 75.16993715 74.73870825 78 86 C81.42141394 99.10829215 87.48432831 111.59758462 99.26953125 119.07421875 C111.15175907 125.52625536 122.85498956 127.54845915 136.3125 127.4375 C138.28319458 127.42505249 138.28319458 127.42505249 140.29370117 127.41235352 C163.41482078 127.09813493 184.9210498 120.59056281 206.87890625 113.91015625 C267.54660843 95.51502345 267.54660843 95.51502345 293.140625 109.1484375 C297.8942672 112.22661565 302.2884403 115.77130311 306.74755859 119.25683594 C325.74805842 133.98950521 346.09977781 133.88816051 369 131 C369.69327393 130.90517334 370.38654785 130.81034668 371.10083008 130.71264648 C382.16847673 129.21803661 393.12952344 129.42056488 404 132 C404.26840167 138.7100417 403.46677636 144.10518135 401.5 150.5 C401.23590332 151.39509277 400.97180664 152.29018555 400.69970703 153.21240234 C398.87678453 159.32134414 396.90540135 165.37863546 394.91845703 171.43579102 C389.45238306 188.14223094 385.83172373 204.52631966 384 222 C383.34 222 382.68 222 382 222 C379.08332541 205.84068188 380.4072017 188.40427667 382.92382812 172.28540039 C384.82748498 160.57153481 384.82748498 160.57153481 383 149 C376.00678493 145.50339246 364.79577386 148.07394089 357.375 149.5 C334.59527875 153.73434236 318.57808239 149.57539754 299 138 C275.87451755 124.38257614 257.97385021 122.74841428 232 129 C221.59064228 131.73513755 211.2943572 134.86512984 201 138 C199.63657858 138.41462507 198.27313453 138.82917575 196.90966797 139.24365234 C196.23664642 139.44829605 195.56362488 139.65293976 194.87020874 139.86378479 C192.19897813 140.67511924 189.52680798 141.48334117 186.85473633 142.29190063 C185.00886353 142.85329583 183.16550694 143.4229441 181.32226562 143.99291992 C162.83282825 149.63022805 145.90134685 153.16216134 126.9375 148.375 C125.84421387 148.10429688 124.75092773 147.83359375 123.62451172 147.5546875 C106.35143087 143.16980669 85.87980328 137.93983989 75.22509766 122.41357422 C70.90733259 115.09225523 67.86470252 107.77867465 65.125 99.75 C56.20211726 74.83279056 42.69859859 58.55426183 22.875 41.4375 C9.66183473 29.9070134 1.36193941 19.9383104 0.11328125 2.08984375 C0.07589844 1.40019531 0.03851563 0.71054687 0 0 Z " fill="#35C834" transform="translate(40,371)"/>
<path d="M0 0 C30.03 0 60.06 0 91 0 C91 9.24 91 18.48 91 28 C88 31 88 31 85.70307922 31.32279968 C84.35405769 31.28615959 84.35405769 31.28615959 82.9777832 31.2487793 C81.95695145 31.22853195 80.93611969 31.20828461 79.88435364 31.18742371 C78.78427475 31.15006607 77.68419586 31.11270844 76.55078125 31.07421875 C74.85915108 31.03455742 74.85915108 31.03455742 73.13334656 30.99409485 C69.52586621 30.90621642 65.91937936 30.79710462 62.3125 30.6875 C59.8691764 30.62425342 57.42581666 30.56238698 54.98242188 30.50195312 C48.9877442 30.35065617 42.99387228 30.18031195 37 30 C37 36.93 37 43.86 37 51 C52.18 51 67.36 51 83 51 C83 60.57 83 70.14 83 80 C67.82 80 52.64 80 37 80 C37 97.82 37 115.64 37 134 C24.46 134 11.92 134 -1 134 C-1.24956592 112.79135293 -1.24956592 112.79135293 -1.35546875 103.58398438 C-1.42706929 97.35960913 -1.49894984 91.13523823 -1.57275391 84.91088867 C-2.04361849 45.13802195 -2.04361849 45.13802195 -2.05859375 30.23828125 C-2.06036621 29.3053273 -2.06213867 28.37237335 -2.06396484 27.41114807 C-2.03392077 6.10176231 -2.03392077 6.10176231 0 0 Z " fill="#36C934" transform="translate(707,861)"/>
<path d="M0 0 C8.52535248 1.75437053 14.04931857 12.2562922 19.05712891 18.90161133 C22.21335226 23.06175789 25.5608903 27.00967471 29 30.9375 C51.74567415 57.13622856 51.74567415 57.13622856 51 72 C49.53055148 84.17004799 43.00224969 95.45945425 37.86621094 106.41943359 C32.15919254 118.65203737 26.61937601 131.29940266 26 145 C25.93683594 145.99128906 25.87367188 146.98257813 25.80859375 148.00390625 C24.7719883 178.46673098 35.84644079 212.06806424 46.80859375 240.21484375 C50.12891449 248.94192357 52.68065655 257.85124348 55.17996216 266.84179688 C55.95627389 269.62992657 56.74307185 272.41490638 57.53295898 275.19921875 C59.38160578 281.71604646 61.22576606 288.23410857 63.05175781 294.75732422 C71.40029833 324.43342044 82.88002214 351.46740343 105.21484375 373.16015625 C109.66303224 377.74461309 114.75403638 383.33114515 115.1953125 389.91333008 C115.17210937 391.02087646 115.14890625 392.12842285 115.125 393.26953125 C115.10953125 394.48833984 115.0940625 395.70714844 115.078125 396.96289062 C115.02627939 399.51758296 114.97419825 402.07227053 114.921875 404.62695312 C114.4199797 415.16062014 114.4199797 415.16062014 119 424.1875 C130.12198457 430.90703235 142.82630329 432.37368549 155.5 433.9375 C161.11732289 434.68947572 165.15253294 436.09151976 170 439 C170 439.66 170 440.32 170 441 C128.39045465 441.83034569 128.39045465 441.83034569 115.51953125 431.52734375 C107.71177923 423.67944905 104.63255574 413.54078551 102.5625 402.9375 C99.71650974 389.11411876 91.78649861 379.59172272 81.87792969 369.95385742 C53.48727783 342.33062367 42.86405805 303.66712398 31.49365234 266.82324219 C30.06247478 262.19135508 28.6077222 257.56717367 27.14453125 252.9453125 C25.08655398 246.4440344 23.04042545 239.93921939 21.00894165 233.42961121 C19.88276733 229.82103318 18.75299072 226.21367776 17.61474609 222.60888672 C4.0385156 179.56337225 -0.92234371 142.69793788 20.50146484 101.08349609 C24.33839225 93.81823056 28.30963981 86.62330224 32.44213867 79.52172852 C32.89306885 78.73725342 33.34399902 77.95277832 33.80859375 77.14453125 C34.21134521 76.45464111 34.61409668 75.76475098 35.02905273 75.05395508 C36.98156651 70.92358082 37.00527069 67.40772534 36 63 C29.19966993 45.79689872 18.00391086 29.91101332 8.00878906 14.44213867 C5.00458081 9.75493108 2.40829839 5.02107494 0 0 Z " fill="#35C834" transform="translate(466,669)"/>
<path d="M0 0 C36.96 0 73.92 0 112 0 C112 11.22 112 22.44 112 34 C99.46 34 86.92 34 74 34 C74 67 74 100 74 134 C61.46 134 48.92 134 36 134 C36 101 36 68 36 34 C24.12 34 12.24 34 0 34 C0 22.78 0 11.56 0 0 Z " fill="#F86604" transform="translate(571,715)"/>
<path d="M0 0 C11.56993231 5.80518083 22.15784929 13.21964623 31.96533203 21.65283203 C32.91923828 22.47267578 33.87314453 23.29251953 34.85595703 24.13720703 C59.46284036 45.74760698 75.68324333 76.37426745 78.71533203 109.21533203 C78.83372851 111.69877044 78.91729356 114.16808349 78.96533203 116.65283203 C78.9857959 117.57644531 79.00625977 118.50005859 79.02734375 119.45166016 C79.08794458 122.62293671 79.12494449 125.79360547 79.15283203 128.96533203 C79.17265137 130.48719116 79.17265137 130.48719116 79.19287109 132.03979492 C79.20879256 148.21467793 79.20879256 148.21467793 73.46533203 154.15283203 C72.85689453 154.80251953 72.24845703 155.45220703 71.62158203 156.12158203 C68.06293169 159.41165499 64.43872253 158.98707144 59.79345703 158.92626953 C55.41271487 158.50271711 53.42901864 157.40964382 49.96533203 154.65283203 C46.43287897 149.52447284 45.39866813 145.69197755 45.49658203 139.43798828 C45.48953247 138.66458603 45.48248291 137.89118378 45.47521973 137.09434509 C45.44611422 133.82386081 45.46213264 130.55399381 45.47460938 127.28344727 C45.49081124 111.26466533 42.96894193 97.2608517 35.96533203 82.65283203 C35.45873047 81.5789624 35.45873047 81.5789624 34.94189453 80.48339844 C29.60134056 69.29355668 24.00106415 60.20665844 14.96533203 51.65283203 C14.24990234 50.94255859 13.53447266 50.23228516 12.79736328 49.50048828 C-1.78787073 35.68145793 -19.2261303 27.38121551 -38.765625 23.42504883 C-45.44583188 22.02860336 -50.69835152 20.23507652 -55.40966797 15.02783203 C-57.80096207 10.06129814 -58.76475082 5.05773168 -57.59326172 -0.40576172 C-56.02507431 -4.57265969 -53.71375112 -6.95576392 -50.03466797 -9.34716797 C-33.40307573 -14.89103205 -14.8361566 -7.13999431 0 0 Z " fill="#35C934" transform="translate(1164.03466796875,669.34716796875)"/>
<path d="M0 0 C1.03833984 -0.02900391 2.07667969 -0.05800781 3.14648438 -0.08789062 C15.15450382 -0.18576163 23.7923575 4.10107637 32.375 12.27734375 C42.22926888 22.59819733 47.19256344 35.75503099 47.625 50 C47.55619435 51.4396259 47.45083785 52.87788521 47.3125 54.3125 C47.24289062 55.1375 47.17328125 55.9625 47.1015625 56.8125 C45.45098837 69.43022226 38.75278227 80.90910119 29.3125 89.3125 C26.12620812 91.7098538 22.91301558 93.60521327 19.3125 95.3125 C18.24708984 95.82103516 18.24708984 95.82103516 17.16015625 96.33984375 C5.22509286 100.89152873 -10.112492 99.70804848 -21.70703125 94.85546875 C-34.60489295 88.17833196 -42.64118445 77.70997523 -47.43359375 64.2109375 C-51.09027428 51.14776153 -49.45905973 36.09804954 -43.0390625 24.27734375 C-41.35064557 21.53827437 -39.5747 18.91760979 -37.6875 16.3125 C-37.27628906 15.71695312 -36.86507812 15.12140625 -36.44140625 14.5078125 C-27.54733248 2.62853058 -13.82822675 0.12640061 0 0 Z M-15.3359375 32.0078125 C-20.14547132 37.80271422 -23.22467035 44.79170309 -22.625 52.4375 C-20.69026254 60.43441485 -17.49804837 65.59631161 -10.6875 70.3125 C-6.29654459 72.85463208 -1.63653133 72.9663018 3.3125 72.3125 C9.40251343 70.46335047 13.96533965 66.70633164 17.3125 61.3125 C20.35614877 53.75549536 20.77165371 45.02639781 17.75 37.375 C15.03210545 32.10422592 10.9523828 28.19246093 5.3125 26.3125 C-3.16017042 25.55689635 -9.27797706 25.77758778 -15.3359375 32.0078125 Z " fill="#35C934" transform="translate(900.6875,1096.6875)"/>
<path d="M0 0 C12.87 0 25.74 0 39 0 C39 44.22 39 88.44 39 134 C26.13 134 13.26 134 0 134 C0 89.78 0 45.56 0 0 Z " fill="#35C934" transform="translate(944,861)"/>
<path d="M0 0 C13.86 0.495 13.86 0.495 28 1 C27.88140625 3.30355469 27.7628125 5.60710937 27.640625 7.98046875 C27.53929686 10.25754372 27.44581096 12.53481851 27.35302734 14.81225586 C27.28533573 16.37285228 27.20972986 17.93312933 27.12548828 19.49291992 C26.4193415 32.72679129 28.05785232 43.60124156 34.75 55.3125 C35.67039062 56.94638672 35.67039062 56.94638672 36.609375 58.61328125 C37.06828125 59.40089844 37.5271875 60.18851563 38 61 C41.53482108 56.99802195 43.57345506 52.98153338 45.625 48.125 C45.9240625 47.44308594 46.223125 46.76117187 46.53125 46.05859375 C49.49245598 39.17968604 51.23207595 32.8688479 51.4140625 25.31640625 C51.43342865 24.61603745 51.4527948 23.91566864 51.4727478 23.19407654 C51.53194891 20.98367019 51.57868725 18.77321005 51.625 16.5625 C51.66323476 15.05271319 51.70228958 13.5429469 51.7421875 12.03320312 C51.8375997 8.35565801 51.92184699 4.67795706 52 1 C56.29096169 0.77490912 60.58269873 0.57276048 64.875 0.375 C66.09832031 0.31054688 67.32164062 0.24609375 68.58203125 0.1796875 C69.74863281 0.128125 70.91523437 0.0765625 72.1171875 0.0234375 C73.73536377 -0.05511475 73.73536377 -0.05511475 75.38623047 -0.13525391 C78 0 78 0 80 2 C80.47714522 6.60481281 80.45713884 11.22665801 80.48046875 15.85327148 C80.49955972 18.13488058 80.5614047 20.41262309 80.625 22.69335938 C80.78569688 33.22148346 78.69814497 41.56554601 74 51 C73.61092468 51.79183685 73.22184937 52.58367371 72.82098389 53.39950562 C69.69466639 59.72753073 66.45124284 65.99205342 63.1875 72.25 C61.73813511 75.04181534 60.29074812 77.83463415 58.84553528 80.62860107 C57.95353235 82.35176475 57.05885919 84.07354949 56.16117859 85.79376221 C55.76018448 86.56597107 55.35919037 87.33817993 54.94604492 88.13378906 C54.59330002 88.81024475 54.24055511 89.48670044 53.87712097 90.18365479 C52.87711839 92.15568325 52.87711839 92.15568325 52 95 C48.97961078 95.22328552 45.95968289 95.42901467 42.9375 95.625 C41.66616211 95.72167969 41.66616211 95.72167969 40.36914062 95.8203125 C35.2099735 96.13902553 30.7622267 96.29009669 26 94 C23.97601438 91.55748739 22.71016822 88.86404264 21.375 86 C20.96677002 85.17274414 20.55854004 84.34548828 20.13793945 83.49316406 C19.2371638 81.66583326 18.3457803 79.83385134 17.46240234 77.99804688 C15.90306059 74.80126613 14.28078758 71.64243812 12.64453125 68.484375 C9.31826246 62.0415176 6.11809065 55.54596271 3 49 C2.649375 48.27893066 2.29875 47.55786133 1.9375 46.81494141 C-4.55752656 33.02388335 -4.10377879 14.36322578 0 0 Z " fill="#F86604" transform="translate(465,1098)"/>
<path d="M0 0 C8.26418052 0.12268014 16.46756921 0.60012739 24.70703125 1.23046875 C24.67561035 2.1594397 24.67561035 2.1594397 24.64355469 3.10717773 C24.55951305 5.96060417 24.5080968 8.81376911 24.45703125 11.66796875 C24.42351562 12.64185547 24.39 13.61574219 24.35546875 14.61914062 C24.24364968 22.97761637 25.99702078 30.01230137 31.95703125 36.16796875 C34.70703125 39.04730043 34.70703125 39.04730043 34.70703125 41.23046875 C35.69703125 41.23046875 36.68703125 41.23046875 37.70703125 41.23046875 C37.96226562 40.49570313 38.2175 39.7609375 38.48046875 39.00390625 C39.76267391 36.10465255 41.31775469 34.28420551 43.33203125 31.85546875 C49.10303222 23.21688966 47.27746365 12.17605161 46.70703125 2.23046875 C49.81846692 1.19332353 52.20171221 1.03015014 55.46875 0.9140625 C56.58701172 0.87216797 57.70527344 0.83027344 58.85742188 0.78710938 C60.60829102 0.72813477 60.60829102 0.72813477 62.39453125 0.66796875 C63.57337891 0.62478516 64.75222656 0.58160156 65.96679688 0.53710938 C68.88009008 0.43095699 71.79346882 0.32890633 74.70703125 0.23046875 C75.89441462 4.7355232 76.19925489 9.16352726 76.48828125 13.80859375 C76.61974277 15.86502759 76.79375351 17.92030493 77.05078125 19.96484375 C78.40162924 35.88555217 64.1573429 51.16787421 55.26708984 63.17529297 C51.82530318 67.88907112 50.60457952 70.99666559 50.390625 76.7734375 C50.3277832 78.3831543 50.3277832 78.3831543 50.26367188 80.02539062 C50.22435547 81.14494141 50.18503906 82.26449219 50.14453125 83.41796875 C50.07975586 85.11469727 50.07975586 85.11469727 50.01367188 86.84570312 C49.90754026 89.64050229 49.8054874 92.43539037 49.70703125 95.23046875 C45.03744111 96.1483601 40.51299109 96.38239473 35.76953125 96.35546875 C35.09212891 96.35933594 34.41472656 96.36320312 33.71679688 96.3671875 C29.26999236 96.35866055 25.08002335 95.94884816 20.70703125 95.23046875 C20.79343872 94.19043701 20.79343872 94.19043701 20.8815918 93.12939453 C22.03888294 77.01787751 21.17591906 66.19861686 11.24267578 53.25341797 C9.22450067 50.59481718 7.38859627 47.83362063 5.55224609 45.04760742 C4.7326245 43.80663107 3.90192174 42.57285691 3.05712891 41.34887695 C1.90160183 39.66476807 0.79758393 37.95725866 -0.29296875 36.23046875 C-0.67549805 35.6576416 -1.05802734 35.08481445 -1.45214844 34.49462891 C-5.16466378 28.23859663 -4.8174106 21.95788932 -4.66796875 14.85546875 C-4.66667969 13.66824219 -4.66539062 12.48101563 -4.6640625 11.2578125 C-4.55322845 0.45764988 -4.55322845 0.45764988 0 0 Z " fill="#F86604" transform="translate(149.29296875,1097.76953125)"/>
<path d="M0 0 C0.02938023 4.12498468 0.04692535 8.24994191 0.0625 12.375 C0.07087891 13.53128906 0.07925781 14.68757813 0.08789062 15.87890625 C0.10702932 22.65400559 -0.14777999 29.27639726 -1 36 C-0.35933594 35.66226562 0.28132813 35.32453125 0.94140625 34.9765625 C9.6651956 30.47815547 17.09516791 28.05596911 27 29 C31.96408737 30.65469579 35.31030865 33.51886499 38 38 C40.15123795 44.62406286 40.26323788 50.7936748 40.1953125 57.71875 C40.1924826 58.81723267 40.18965271 59.91571533 40.18673706 61.04748535 C40.17560486 64.531771 40.15051298 68.01579296 40.125 71.5 C40.11496121 73.8723921 40.10583694 76.24478826 40.09765625 78.6171875 C40.07568834 84.41154724 40.04228046 90.20575477 40 96 C38.2813155 96.34286553 36.56090743 96.67709662 34.83984375 97.0078125 C33.88198975 97.1948877 32.92413574 97.38196289 31.93725586 97.57470703 C26.40408321 98.37586959 21.05179054 98.50131015 16.4375 95.125 C13.69268714 91.06745055 13.90631639 87.65749731 13.97265625 82.8828125 C13.98530497 81.4570337 13.99766575 80.03125232 14.00976562 78.60546875 C14.03455078 76.36498933 14.0625053 74.1246449 14.09594727 71.88427734 C14.12626559 69.71711395 14.14396078 67.55012114 14.16015625 65.3828125 C14.18541382 63.43979248 14.18541382 63.43979248 14.21118164 61.45751953 C14.00804173 58.13166123 13.53145834 55.93731457 12 53 C10.30785336 51.80351366 10.30785336 51.80351366 8 52 C5.65246417 52.96618838 3.31756327 53.96397637 1 55 C0.98541748 56.09465576 0.97083496 57.18931152 0.95581055 58.31713867 C0.89771261 62.38956905 0.82048073 66.46145315 0.73754883 70.53344727 C0.70435346 72.29377355 0.67630476 74.05420488 0.65356445 75.81469727 C0.6199188 78.34957525 0.5675994 80.88349523 0.51171875 83.41796875 C0.50213387 84.59325386 0.50213387 84.59325386 0.49235535 85.7922821 C0.37163103 90.30791224 -0.0495217 93.48564297 -3 97 C-6.328125 97.5234375 -6.328125 97.5234375 -10.25 97.375 C-11.53390625 97.34148437 -12.8178125 97.30796875 -14.140625 97.2734375 C-17.80166115 97.01405235 -21.37125986 96.53773209 -25 96 C-25.0154612 94.87152901 -25.0154612 94.87152901 -25.03123474 93.72026062 C-25.12972966 86.58628928 -25.23231154 79.45239336 -25.33933926 72.31854534 C-25.39420612 68.65208801 -25.44756255 64.98562238 -25.49731445 61.3190918 C-25.54549957 57.77231146 -25.59785158 54.22561367 -25.65294075 50.6789341 C-25.6828584 48.68571053 -25.70860066 46.69242568 -25.73423767 44.69914246 C-25.83830509 38.22686365 -26.09214326 31.83440955 -26.77253723 25.39559937 C-27.16646749 21.24679258 -27.22332377 17.10232616 -27.25 12.9375 C-27.270625 12.09767578 -27.29125 11.25785156 -27.3125 10.39257812 C-27.328125 7.96484375 -27.328125 7.96484375 -27 4 C-23.7459118 1.83060786 -21.82415208 1.45413842 -18 0.875 C-16.4221875 0.62363281 -16.4221875 0.62363281 -14.8125 0.3671875 C-9.86511324 -0.10930262 -4.96585158 -0.07071624 0 0 Z " fill="#35C934" transform="translate(1338,1097)"/>
<path d="M0 0 C20.41296302 9.74757687 32.43917298 25.26303836 40.31591797 46.04931641 C44.63637486 58.36924879 46.56955707 72.77791643 41 85 C38.67228376 88.73210503 36.09844614 91.31195725 32 93 C26.5824871 93.87576336 21.60004148 93.21539984 16.8503418 90.41796875 C13.15828895 87.58864523 11.35966145 83.26156288 10.63891602 78.72949219 C10.49253342 76.35634254 10.44660002 74.0025006 10.4375 71.625 C10.00867186 57.93406983 6.51743866 46.92599317 -3.6875 37.125 C-10.46954276 31.66023862 -18.72752385 29.32791434 -27 27.0625 C-30.78605892 25.90313268 -32.75823603 25.2142908 -35.75 22.5625 C-38.03985896 16.03640197 -38.86467981 9.22813795 -37.0625 2.5 C-27.08327504 -9.59603025 -12.73133797 -5.7627532 0 0 Z " fill="#35C934" transform="translate(1136,727)"/>
<path d="M0 0 C1.15249741 0.00222061 2.30499481 0.00444122 3.49241638 0.00672913 C5.4443264 0.00684242 5.4443264 0.00684242 7.43566895 0.00695801 C8.86661313 0.01206543 10.29755694 0.01728144 11.72850037 0.02259827 C13.18438672 0.02446249 14.64027369 0.02588637 16.09616089 0.02688599 C19.93488791 0.03071086 23.77357731 0.04054088 27.61228943 0.05158997 C31.52667227 0.06180474 35.44106117 0.06638375 39.35545349 0.07142639 C47.04101755 0.08216318 54.72655057 0.09923923 62.41209412 0.12025452 C63.36378095 2.97531501 63.60218872 5.02962733 63.72850037 8.00697327 C63.76660828 8.85219543 63.80471619 9.6974176 63.84397888 10.56825256 C63.90863342 12.17180603 63.90863342 12.17180603 63.97459412 13.80775452 C64.19115662 18.91244202 64.19115662 18.91244202 64.41209412 24.12025452 C53.52209412 23.62525452 53.52209412 23.62525452 42.41209412 23.12025452 C43.10028129 58.12988152 43.10028129 58.12988152 44.41209412 93.12025452 C39.0228758 95.8077726 34.89786362 96.56660446 28.91209412 96.43275452 C27.83121521 96.4375885 27.83121521 96.4375885 26.72850037 96.44252014 C21.68977473 96.39240623 18.58733128 95.59889371 13.41209412 94.12025452 C13.74209412 71.02025452 14.07209412 47.92025452 14.41209412 24.12025452 C7.81209412 24.45025452 1.21209412 24.78025452 -5.58790588 25.12025452 C-5.91790588 24.79025452 -6.24790588 24.46025452 -6.58790588 24.12025452 C-6.12053635 0.28440839 -6.12053635 0.28440839 0 0 Z " fill="#35C934" transform="translate(1119.587905883789,1097.8797454833984)"/>
<path d="M0 0 C0.33 2.31 0.66 4.62 1 7 C1.96421875 6.57847656 2.9284375 6.15695312 3.921875 5.72265625 C5.19784676 5.16910968 6.47389233 4.61573319 7.75 4.0625 C8.38421875 3.78470703 9.0184375 3.50691406 9.671875 3.22070312 C16.71822044 0.17462671 23.69218611 -1.585098 31.2890625 0.68359375 C36.04072716 2.82807162 38.79123808 5.15771425 41 10 C43.26616884 19.71684403 43.28182329 29.4930245 43.20581055 39.40429688 C43.18737379 41.89203012 43.18530288 44.37939248 43.18554688 46.8671875 C43.18063593 48.47135735 43.17480946 50.07552472 43.16796875 51.6796875 C43.16685593 52.41210663 43.1657431 53.14452576 43.16459656 53.8991394 C43.12373965 58.37095562 42.7227117 62.60028976 42 67 C39.70926257 67.19853058 37.41732277 67.38319951 35.125 67.5625 C33.21074219 67.71912109 33.21074219 67.71912109 31.2578125 67.87890625 C28.027227 68.05471829 24.95002297 67.85240318 21.73388672 67.50756836 C20.84418182 67.41366318 19.95447693 67.319758 19.03781128 67.2230072 C18.0290947 67.11261864 18.0290947 67.11261864 17 67 C16.97494385 65.73293213 16.9498877 64.46586426 16.92407227 63.16040039 C16.83018004 58.47702221 16.72991565 53.7937987 16.62768555 49.1105957 C16.58426759 47.08035896 16.54259774 45.05008408 16.50268555 43.01977539 C16.44514854 40.10811849 16.38140722 37.19665486 16.31640625 34.28515625 C16.29969376 33.3716188 16.28298126 32.45808136 16.26576233 31.51686096 C16.5769315 27.43210684 16.5769315 27.43210684 15 24 C12.96618256 23.80034595 12.96618256 23.80034595 10.625 23.8125 C9.83351563 23.79832031 9.04203125 23.78414062 8.2265625 23.76953125 C5.71268667 23.85492491 5.71268667 23.85492491 3 26 C2.68663515 28.85637499 2.55900355 31.50694519 2.55859375 34.3671875 C2.54538589 35.19832062 2.53217804 36.02945374 2.51856995 36.88577271 C2.47758294 39.54888208 2.45598551 42.21164609 2.4375 44.875 C2.41370321 47.53110632 2.38553612 50.18688752 2.34571838 52.84280396 C2.32139758 54.49655864 2.30650955 56.15048519 2.30210876 57.80441284 C2.24998179 61.66294299 2.19469654 64.73172151 0 68 C-1.95824931 68.02762421 -3.91661983 68.04667014 -5.875 68.0625 C-7.51082031 68.07990234 -7.51082031 68.07990234 -9.1796875 68.09765625 C-12.24375585 68.01933139 -15.19526952 67.80960772 -18.23876953 67.49389648 C-19.13242218 67.40196518 -20.02607483 67.31003387 -20.94680786 67.21531677 C-21.62436127 67.14426224 -22.30191467 67.0732077 -23 67 C-23.01030746 66.44147339 -23.02061493 65.88294678 -23.03123474 65.30749512 C-23.13985337 59.46693516 -23.25440226 53.62651238 -23.37231445 47.78613281 C-23.41548678 45.60972987 -23.45717346 43.4332969 -23.49731445 41.25683594 C-23.5554482 38.11904881 -23.61901603 34.98141033 -23.68359375 31.84375 C-23.70030624 30.87884644 -23.71701874 29.91394287 -23.73423767 28.9197998 C-23.85089289 23.53687266 -24.25406671 18.331876 -25 13 C-25.08044518 11.35560587 -25.13078682 9.7088505 -25.125 8.0625 C-25.12757813 7.31097656 -25.13015625 6.55945312 -25.1328125 5.78515625 C-25 4 -25 4 -24 3 C-22.64951065 2.70464998 -21.28719604 2.46277687 -19.921875 2.24609375 C-19.09042969 2.11396484 -18.25898437 1.98183594 -17.40234375 1.84570312 C-16.52707031 1.71099609 -15.65179687 1.57628906 -14.75 1.4375 C-13.46029297 1.22963867 -13.46029297 1.22963867 -12.14453125 1.01757812 C-8.06508637 0.37957557 -4.14378229 -0.19691527 0 0 Z " fill="#F86604" transform="translate(769,1126)"/>
<path d="M0 0 C0.9583374 0.00523682 1.9166748 0.01047363 2.90405273 0.01586914 C4.45576172 0.02070312 4.45576172 0.02070312 6.03881836 0.02563477 C7.12743164 0.03401367 8.21604492 0.04239258 9.33764648 0.05102539 C10.97636719 0.05779297 10.97636719 0.05779297 12.64819336 0.06469727 C15.35723144 0.07652713 18.06616248 0.09300996 20.77514648 0.11352539 C20.75943604 1.06606201 20.74372559 2.01859863 20.72753906 3 C20.67276952 6.57266608 20.63862764 10.14529593 20.61035156 13.71826172 C20.59537106 15.25738794 20.57497938 16.79647227 20.54882812 18.33544922 C20.40950949 26.75193371 20.36235752 34.23992566 23.77514648 42.11352539 C28.44008082 43.06203879 28.44008082 43.06203879 33.08764648 42.48852539 C35.43426506 40.57646581 35.86579998 39.01499199 36.77514648 36.11352539 C37.00705232 33.29709467 37.14646592 30.5685849 37.18920898 27.75024414 C37.20857513 26.95826126 37.22794128 26.16627838 37.24789429 25.35029602 C37.3074188 22.8339802 37.35396606 20.31761795 37.40014648 17.80102539 C37.4383513 16.08941749 37.47740448 14.3778283 37.51733398 12.66625977 C37.61309779 8.48216791 37.69722829 4.29798608 37.77514648 0.11352539 C41.71250772 0.02656362 45.64962277 -0.02685296 49.58764648 -0.07397461 C51.26697266 -0.11167969 51.26697266 -0.11167969 52.98022461 -0.15014648 C54.05336914 -0.15981445 55.12651367 -0.16948242 56.23217773 -0.17944336 C57.71681519 -0.20300903 57.71681519 -0.20300903 59.23144531 -0.22705078 C61.77514648 0.11352539 61.77514648 0.11352539 63.6418457 1.27099609 C65.30224468 3.97048577 64.83230801 5.75940705 64.45092773 8.88696289 C63.84308958 15.28118995 63.72330082 21.5438587 63.81811523 27.96508789 C63.82859894 28.91986023 63.83908264 29.87463257 63.84988403 30.8583374 C63.8942092 34.83320007 63.9445002 38.80761375 64.02197266 42.78198242 C64.07627493 45.71809912 64.10546567 48.65359651 64.13061523 51.59008789 C64.16628853 52.93691147 64.16628853 52.93691147 64.2026825 54.3109436 C64.22887067 60.50906169 64.22887067 60.50906169 61.86230469 63.66186523 C56.86817605 67.1353813 50.83897674 66.61543491 45.03295898 65.66430664 C42.60514626 65.17943186 40.18809409 64.66731664 37.77514648 64.11352539 C37.77514648 61.80352539 37.77514648 59.49352539 37.77514648 57.11352539 C36.79932617 57.60723633 35.82350586 58.10094727 34.81811523 58.60961914 C33.53301244 59.2568607 32.24785323 59.90399027 30.96264648 60.55102539 C30.32004883 60.87651367 29.67745117 61.20200195 29.01538086 61.53735352 C22.17203045 64.97675761 15.25210408 66.89506364 7.67358398 64.42993164 C1.90695644 61.36879235 -1.77216988 57.07158399 -3.84594727 51.00024414 C-5.83008316 44.07531974 -5.63797418 37.037304 -5.56103516 29.89990234 C-5.53736477 27.55214177 -5.54050272 25.20551653 -5.54711914 22.85766602 C-5.5037453 0.28083415 -5.5037453 0.28083415 0 0 Z " fill="#35C934" transform="translate(960.224853515625,1128.886474609375)"/>
<path d="M0 0 C0.98613281 0.00322266 1.97226562 0.00644531 2.98828125 0.00976562 C4.02082031 0.01814453 5.05335938 0.02652344 6.1171875 0.03515625 C7.67759766 0.04192383 7.67759766 0.04192383 9.26953125 0.04882812 C11.84380712 0.06063673 14.41796896 0.0771055 16.9921875 0.09765625 C16.98695068 1.15154541 16.98171387 2.20543457 16.97631836 3.29125977 C16.95812966 7.22549582 16.94670505 11.1597282 16.93725586 15.09399414 C16.93224723 16.7922427 16.92543844 18.49048699 16.91674805 20.1887207 C16.90452977 22.6388454 16.89892436 25.08891275 16.89453125 27.5390625 C16.88936996 28.29038956 16.88420868 29.04171661 16.87889099 29.81581116 C16.87841579 34.34707118 17.24742314 38.62649306 17.9921875 43.09765625 C22.84661213 43.57358023 25.93746543 43.86672442 29.9921875 40.91015625 C33.3894252 36.13279074 33.17155575 31.09787184 33.30859375 25.390625 C33.32937485 24.66523026 33.35015594 23.93983551 33.37156677 23.19245911 C33.43660965 20.89011512 33.49573523 18.58766343 33.5546875 16.28515625 C33.59791585 14.71808811 33.64153148 13.1510306 33.68554688 11.58398438 C33.79224418 7.75531689 33.89363719 3.92654175 33.9921875 0.09765625 C38.13800637 0.06878874 42.28379966 0.05090298 46.4296875 0.03515625 C47.61369141 0.02677734 48.79769531 0.01839844 50.01757812 0.00976562 C51.14228516 0.00654297 52.26699219 0.00332031 53.42578125 0 C54.46790771 -0.00523682 55.51003418 -0.01047363 56.58374023 -0.01586914 C58.9921875 0.09765625 58.9921875 0.09765625 59.9921875 1.09765625 C60.05654432 3.06219191 60.04907998 5.02910981 60.01391602 6.99438477 C59.99381973 8.25561661 59.97372345 9.51684845 59.95301819 10.81629944 C59.9258177 12.20305591 59.89850692 13.58981022 59.87109375 14.9765625 C59.84680249 16.38760131 59.82295844 17.79864788 59.79954529 19.20970154 C59.73660529 22.93013326 59.66756701 26.65042814 59.59729004 30.37072754 C59.52669587 34.16440581 59.46182563 37.95818139 59.39648438 41.75195312 C59.26734434 49.20062842 59.13176653 56.64916849 58.9921875 64.09765625 C54.65718367 65.54265753 50.46999663 65.28197453 45.9296875 65.28515625 C45.00607422 65.29740234 44.08246094 65.30964844 43.13085938 65.32226562 C42.24849609 65.32419922 41.36613281 65.32613281 40.45703125 65.328125 C39.6487085 65.33223389 38.84038574 65.33634277 38.00756836 65.34057617 C35.9921875 65.09765625 35.9921875 65.09765625 33.9921875 63.09765625 C33.3671875 60.47265625 33.3671875 60.47265625 32.9921875 58.09765625 C32.04859375 58.60296875 31.105 59.10828125 30.1328125 59.62890625 C21.30129842 64.17356941 13.67877493 67.30114465 3.6484375 64.42578125 C-1.34203659 62.30296764 -4.64374723 58.96323245 -7.0078125 54.09765625 C-8.68162135 49.13022353 -9.44013455 44.37197255 -9.6953125 39.16015625 C-9.73438721 38.40524902 -9.77346191 37.6503418 -9.8137207 36.87255859 C-10.09769918 29.98107127 -9.9474383 23.11322847 -9.6953125 16.22265625 C-9.66074951 15.18246338 -9.62618652 14.14227051 -9.59057617 13.07055664 C-9.54650635 12.09207764 -9.50243652 11.11359863 -9.45703125 10.10546875 C-9.40035278 8.80053467 -9.40035278 8.80053467 -9.3425293 7.46923828 C-8.98517673 4.93727411 -8.36258771 3.25842171 -7.0078125 1.09765625 C-4.50284246 -0.15482877 -2.79927976 -0.01608781 0 0 Z " fill="#F86604" transform="translate(312.0078125,1128.90234375)"/>
<path d="M0 0 C6.67081304 5.15401565 11.49282818 13.76465877 12.61376953 22.12084961 C12.74951322 24.4853443 12.780923 26.81937338 12.75 29.1875 C12.74025146 30.02273193 12.73050293 30.85796387 12.72045898 31.71850586 C12.41171488 42.50361768 9.42904417 50.00343191 1.76171875 57.76953125 C-5.12613346 63.69066736 -11.94834847 64.22504056 -20.75 64.375 C-21.58893799 64.39385254 -22.42787598 64.41270508 -23.29223633 64.43212891 C-32.39074943 64.33767759 -39.29482149 60.94398578 -45.8984375 54.80078125 C-52.44277283 47.75633296 -55.07500259 40.21568775 -55 30.625 C-54.99436035 29.87355713 -54.9887207 29.12211426 -54.98291016 28.34790039 C-54.771116 18.61690241 -52.49914264 11.04109463 -45.6875 3.875 C-33.41750404 -7.54075573 -14.18372599 -8.87250392 0 0 Z M-30.6875 22.875 C-31.0175 23.205 -31.3475 23.535 -31.6875 23.875 C-32.26439493 28.89682309 -32.21791192 32.81417616 -29.9375 37.375 C-27.27919802 40.4271603 -27.27919802 40.4271603 -23.6875 41.875 C-18.41568487 41.68329763 -15.42931444 40.61681444 -11.6875 36.875 C-10.33333681 32.81251043 -10.14476909 29.12277396 -10.6875 24.875 C-12.91188719 20.60096143 -12.91188719 20.60096143 -16.6875 17.875 C-23.12653623 16.98947439 -26.49998328 17.5097442 -30.6875 22.875 Z " fill="#F76604" transform="translate(725.6875,1130.125)"/>
<path d="M0 0 C6.37800102 5.22070245 10.38122554 10.84364992 12.375 19 C13.53667976 30.84913358 12.77533357 43.55662031 5.33984375 53.35546875 C-1.01718827 60.40380922 -8.63834096 62.69040487 -17.96875 63.5078125 C-27.69570402 63.80436598 -36.24276538 62.60726381 -44.125 56.5625 C-50.83903731 50.18739246 -54.78761679 41.77811649 -55.6484375 32.609375 C-55.77359013 20.84502756 -54.04836686 11.89165636 -45.73046875 3.19921875 C-33.00087463 -7.39163904 -13.86059481 -9.87081612 0 0 Z M-29.3125 21.1875 C-31.41179248 24.87831385 -32.29184632 28.13416216 -32.375 32.375 C-30.94734896 36.15407629 -28.76568533 38.24846305 -25.3125 40.1875 C-21.43663794 41.27546128 -19.32743776 41.57963504 -15.5625 40.125 C-11.73986385 36.83328553 -10.49476243 33.64559941 -9.875 28.6875 C-10.50367783 23.65807732 -12.66097607 20.78574896 -16.25 17.3125 C-21.67039546 14.35592066 -25.60301846 16.77651192 -29.3125 21.1875 Z " fill="#F76604" transform="translate(283.3125,1130.8125)"/>
<path d="M0 0 C0.83563477 0.00644531 1.67126953 0.01289062 2.53222656 0.01953125 C11.45897064 0.2838213 17.33926131 2.77799265 23.5 9.3125 C24.57279106 10.68455666 25.61672589 12.07985795 26.625 13.5 C27.05941406 14.07105469 27.49382812 14.64210938 27.94140625 15.23046875 C30.83579361 19.79896169 31.03114685 24.51422417 31.125 29.8125 C31.14361084 30.51890625 31.16222168 31.2253125 31.18139648 31.953125 C31.11937323 36.97279364 31.11937323 36.97279364 29.08105469 39.14648438 C25.76241602 40.97536437 22.50389891 41.29877916 18.796875 41.66796875 C18.04786926 41.75250809 17.29886353 41.83704742 16.52716064 41.92414856 C14.14423222 42.19038096 11.75985258 42.43915799 9.375 42.6875 C7.75508166 42.86538672 6.13528775 43.04441044 4.515625 43.22460938 C0.55340407 43.66292625 -3.41020897 44.08560273 -7.375 44.5 C-3.99098119 47.35851418 -1.50935421 49.32649548 3.03515625 49.75390625 C7.36410624 49.32949939 11.38774348 47.77812509 15.43310547 46.24243164 C20.33959306 44.40486435 20.33959306 44.40486435 23.625 45.5 C25.265625 48.08203125 25.265625 48.08203125 26.875 51.3125 C27.41640625 52.37082031 27.9578125 53.42914062 28.515625 54.51953125 C29.625 57.5 29.625 57.5 29.48046875 59.6953125 C27.14746125 64.61699955 22.23062312 67.57857012 17.25 69.375 C5.05030548 72.48545647 -7.67331616 71.50498948 -18.609375 65.21484375 C-25.49402453 60.56899942 -30.43688009 53.60486506 -32.375 45.5 C-34.42588782 34.42520575 -33.76896835 23.36663965 -27.625 13.625 C-20.4445803 3.86245893 -12.0487606 -0.09712826 0 0 Z M-7.25 20 C-9.92187839 23.14338634 -10.14083445 25.44113045 -10.375 29.5 C-4.30607371 29.75287193 0.78700408 29.19832609 6.625 27.5 C6.27698447 24.92468508 5.91535995 22.95167104 4.5 20.75 C0.52973501 18.10315667 -3.05750459 17.81261109 -7.25 20 Z " fill="#35C934" transform="translate(1218.375,1124.5)"/>
<path d="M0 0 C7.66653586 4.76803459 11.5958451 12.49543443 14 21 C15.12099098 31.88404033 13.7678301 41.64082286 6.875 50.375 C1.24764612 56.29405257 -6.30257002 59.66988107 -14.390625 60.23828125 C-27.85144683 60.49714321 -27.85144683 60.49714321 -34 56 C-35.03125 55.2575 -36.0625 54.515 -37.125 53.75 C-43.1100175 48.02520065 -47.02304303 42.99833148 -47.30859375 34.5546875 C-47.35786288 32.3282555 -47.40055867 30.10167066 -47.4375 27.875 C-47.48326172 26.7715625 -47.52902344 25.668125 -47.57617188 24.53125 C-47.69817699 15.59835395 -45.31593973 10.65449398 -39.31933594 4.1875 C-28.77373054 -6.31026403 -12.63817175 -6.4089307 0 0 Z " fill="#35C934" transform="translate(1104,787)"/>
<path d="M0 0 C1.17151611 0.00483398 1.17151611 0.00483398 2.36669922 0.00976562 C8.83910335 0.16485732 14.35489491 1.5597389 20.1875 4.4375 C19.73665507 7.02234426 19.27714737 9.6051329 18.8125 12.1875 C18.62300781 13.28191406 18.62300781 13.28191406 18.4296875 14.3984375 C17.76915926 18.0313428 17.11302338 21.2562005 15.1875 24.4375 C11.34726359 24.51750493 7.84754773 24.41202356 4.0625 23.75 C0.30210107 23.18044618 0.30210107 23.18044618 -2.625 24.4375 C-5.50918145 27.07446589 -7.11052409 29.620506 -7.8125 33.4375 C-7.5895291 37.63214003 -7.10159362 41.15413569 -4.0546875 44.1875 C-1.32218316 45.71084737 0.38784747 45.77553826 3.5 45.6875 C4.46164062 45.66171875 5.42328125 45.6359375 6.4140625 45.609375 C9.72795666 45.40400691 12.91948306 45.01848079 16.1875 44.4375 C18.0724413 51.44379124 19.58450836 58.20160027 20.1875 65.4375 C13.12023598 69.13175165 7.80447908 69.66839233 -0.0625 69.75 C-0.97902344 69.77900391 -1.89554688 69.80800781 -2.83984375 69.83789062 C-11.00413485 69.91359375 -17.22699606 67.53526784 -23.37109375 62.02734375 C-30.27644818 54.41086881 -33.68693145 44.57408419 -34.1875 34.375 C-33.00706509 21.98043347 -28.3588827 13.21282995 -19.1328125 4.9453125 C-13.07911577 1.01142877 -7.12989855 -0.09221684 0 0 Z " fill="#35C934" transform="translate(1285.8125,1124.5625)"/>
<path d="M0 0 C0.66 2.31 1.32 4.62 2 7 C3.051875 6.38125 4.10375 5.7625 5.1875 5.125 C10 3 10 3 23 1 C23 9.91 23 18.82 23 28 C15.125 28.375 15.125 28.375 12.64892578 28.47802734 C8.36288412 28.58495779 8.36288412 28.58495779 5 31 C4.75443629 33.72000357 4.62643514 36.34574257 4.5859375 39.0703125 C4.56657135 39.86654022 4.5472052 40.66276794 4.5272522 41.48312378 C4.46739526 44.03030634 4.42104721 46.57753395 4.375 49.125 C4.33682579 50.8502803 4.29777439 52.57554143 4.2578125 54.30078125 C4.16168891 58.53369876 4.07768092 62.76670549 4 67 C1.52128278 67.1976891 -0.95743086 67.38329786 -3.4375 67.5625 C-4.46907227 67.64661133 -4.46907227 67.64661133 -5.52148438 67.73242188 C-10.81498729 68.10173603 -15.7391789 67.69971512 -21 67 C-21.01981934 65.80624756 -21.03963867 64.61249512 -21.06005859 63.38256836 C-21.13711009 58.88140533 -21.22565842 54.38052459 -21.31738281 49.87963867 C-21.35526722 47.94512575 -21.3901842 46.01055203 -21.421875 44.07592773 C-21.59492322 33.63625309 -21.93269968 23.41694055 -23.58447266 13.09594727 C-23.99684791 10.02348512 -24.07169035 7.09579933 -24 4 C-8.08505639 -0.20394737 -8.08505639 -0.20394737 0 0 Z " fill="#F86604" transform="translate(403,1126)"/>
<path d="M0 0 C0.33 1.98 0.66 3.96 1 6 C1.71285156 5.65066406 2.42570312 5.30132813 3.16015625 4.94140625 C15.80355161 -1.0654828 15.80355161 -1.0654828 22 1 C23.32411006 3.64822012 23.01892401 5.48938194 22.87890625 8.4453125 C22.83056641 9.52167969 22.78222656 10.59804687 22.73242188 11.70703125 C22.67634766 12.83496094 22.62027344 13.96289062 22.5625 15.125 C22.51029297 16.26066406 22.45808594 17.39632813 22.40429688 18.56640625 C22.27435544 21.37786631 22.13938086 24.18899465 22 27 C20.95199219 27.04898437 19.90398437 27.09796875 18.82421875 27.1484375 C17.44528646 27.22348143 16.0663815 27.29902857 14.6875 27.375 C13.65206055 27.42140625 13.65206055 27.42140625 12.59570312 27.46875 C8.93009211 27.68124919 7.12099208 27.91933861 4 30 C3.66222851 32.75900757 3.51102021 35.30483257 3.48828125 38.0703125 C3.47033005 38.86654022 3.45237885 39.66276794 3.43388367 40.48312378 C3.37963031 43.0303617 3.34583788 45.57741071 3.3125 48.125 C3.27934007 49.8502868 3.24485166 51.57554861 3.20898438 53.30078125 C3.12389565 57.53371813 3.05715693 61.76659753 3 66 C0.70926257 66.19853058 -1.58267723 66.38319951 -3.875 66.5625 C-5.78925781 66.71912109 -5.78925781 66.71912109 -7.7421875 66.87890625 C-12.54342194 67.13921414 -17.23876218 66.58613955 -22 66 C-22.02505615 64.71424072 -22.0501123 63.42848145 -22.07592773 62.10375977 C-22.1706073 57.30093638 -22.27067641 52.49823739 -22.37231445 47.69555664 C-22.41543562 45.62299525 -22.45712514 43.55040352 -22.49731445 41.4777832 C-22.55557418 38.48639819 -22.61910351 35.49516267 -22.68359375 32.50390625 C-22.70030624 31.58791153 -22.71701874 30.67191681 -22.73423767 29.72816467 C-22.84723182 24.74144574 -23.15914796 19.84883809 -23.78283691 14.89892578 C-24.06810796 12.40444779 -24.09783431 9.94623633 -24.0625 7.4375 C-24.05347656 6.59058594 -24.04445313 5.74367188 -24.03515625 4.87109375 C-24.02355469 4.25363281 -24.01195312 3.63617187 -24 3 C-6.11828859 -1.66862416 -6.11828859 -1.66862416 0 0 Z " fill="#35C934" transform="translate(1056,1127)"/>
<path d="M0 0 C2.58984375 0.34375 2.58984375 0.34375 4.5390625 2.609375 C5.11269531 3.59421875 5.68632813 4.5790625 6.27734375 5.59375 C7.14939453 7.05554687 7.14939453 7.05554687 8.0390625 8.546875 C8.55082031 9.46984375 9.06257812 10.3928125 9.58984375 11.34375 C9.98816406 12.03984375 10.38648438 12.7359375 10.796875 13.453125 C11.58984375 15.34375 11.58984375 15.34375 11.58984375 19.34375 C10.9865625 19.40433594 10.38328125 19.46492188 9.76171875 19.52734375 C8.56289063 19.65302734 8.56289063 19.65302734 7.33984375 19.78125 C6.5509375 19.86246094 5.76203125 19.94367188 4.94921875 20.02734375 C2.76619736 20.32009993 0.71252555 20.76439419 -1.41015625 21.34375 C-1.41015625 27.92629482 1.4975579 30.95082715 5.64453125 35.86328125 C9.50421462 40.78476506 11.22833903 46.0726004 10.93359375 52.3359375 C9.87743116 58.5048872 6.57233508 63.15641702 1.69921875 66.95703125 C-4.60680133 71.10265556 -11.4075562 74.4780344 -19.11328125 74.09765625 C-23.76169249 72.57190222 -26.11352254 68.44767785 -28.41015625 64.34375 C-30.01236951 60.90215376 -30.41015625 59.24911917 -30.41015625 55.34375 C-29.56710937 55.15039062 -28.7240625 54.95703125 -27.85546875 54.7578125 C-26.21191406 54.36722656 -26.21191406 54.36722656 -24.53515625 53.96875 C-23.44460938 53.71351562 -22.3540625 53.45828125 -21.23046875 53.1953125 C-18.3060717 52.55468785 -18.3060717 52.55468785 -16.41015625 50.34375 C-16.24162805 46.88892185 -16.9356816 44.90718865 -19.16015625 42.265625 C-20.21203125 41.15960937 -20.21203125 41.15960937 -21.28515625 40.03125 C-25.86185601 35.12588239 -28.24895996 30.7619937 -28.49609375 23.98828125 C-28.06015628 17.1394742 -25.19196903 12.84217094 -20.22265625 8.21875 C-14.22964009 3.30834321 -7.5617758 1.07850287 0 0 Z " fill="#F76604" transform="translate(617.41015625,1121.65625)"/>
<path d="M0 0 C9.24 0 18.48 0 28 0 C27.34 21.12 26.68 42.24 26 64 C11 65 11 65 1 64 C0.67 42.88 0.34 21.76 0 0 Z " fill="#F86604" transform="translate(552,1129)"/>
<path d="M0 0 C8.58 0 17.16 0 26 0 C26 20.79 26 41.58 26 63 C20.92183899 64.69272034 18.14395534 65.27256121 13 65.25 C11.2365625 65.25773437 11.2365625 65.25773437 9.4375 65.265625 C5.96921834 64.99762142 3.26293644 64.15209572 0 63 C0.00523682 61.77482666 0.01047363 60.54965332 0.01586914 59.28735352 C0.03407498 54.70825949 0.0454886 50.12916861 0.05493164 45.55004883 C0.05993641 43.5744574 0.06674225 41.59886964 0.07543945 39.62329102 C0.08767492 36.77098686 0.09326702 33.91873201 0.09765625 31.06640625 C0.10281754 30.19415909 0.10797882 29.32191193 0.11329651 28.42323303 C0.11373596 23.53491794 -0.15142312 18.78235793 -0.77171326 13.93223572 C-1.08463234 11.28366564 -1.13257145 8.66514866 -1.125 6 C-1.12757813 5.071875 -1.13015625 4.14375 -1.1328125 3.1875 C-1 1 -1 1 0 0 Z " fill="#F86604" transform="translate(638,1129)"/>
<path d="M0 0 C4.44283595 2.47773543 6.64509106 4.99777318 8.25 9.8125 C8.85493596 15.81532609 8.238073 20.45457599 5.25 25.8125 C0.03542786 31.66299557 0.03542786 31.66299557 -4.17578125 32.015625 C-13.92492097 32.17393309 -13.92492097 32.17393309 -17.75 28.8125 C-22.52028549 23.63333289 -24.26367501 19.06770449 -24.0546875 12.08984375 C-23.55008502 8.31826366 -22.33288941 5.61304863 -19.75 2.8125 C-13.45916664 -1.89170725 -7.42847471 -2.35235033 0 0 Z " fill="#F66504" transform="translate(98.75,1162.1875)"/>
<path d="M0 0 C3.12456661 3.38787279 4.24836476 6.8766112 4.5 11.4375 C4.21412078 17.42054372 1.75079909 21.93087381 -2.0625 26.4375 C-6.57910888 30.07992652 -12.49165758 29.56738291 -18 29 C-22.50911167 26.82596402 -24.85819183 24.50906984 -27 20 C-28.63343904 14.49428241 -28.75323453 9.10112789 -26.8125 3.6875 C-24.48697924 0.23931405 -22.06818642 -2.14419872 -18.1875 -3.75 C-11.12338491 -4.55732744 -5.84141458 -4.36813745 0 0 Z " fill="#F66504" transform="translate(28,1165)"/>
<path d="M0 0 C6.11343558 4.16825153 6.11343558 4.16825153 7.75 7.875 C8.64307296 14.49722023 8.88085098 21.31971764 4.75 26.875 C-0.42409985 31.54430962 -3.64621709 32.23787625 -10.48828125 32.1484375 C-14.42360604 31.75880138 -16.39733132 30.58851411 -19.25 27.875 C-23.54579227 22.56178324 -23.97980633 17.74821122 -23.76953125 10.98046875 C-22.98184765 6.27213448 -21.00508463 3.71377211 -17.25 0.875 C-12.08845686 -2.33352682 -5.57446188 -1.92962142 0 0 Z " fill="#F76604" transform="translate(61.25,1162.125)"/>
<path d="M0 0 C0.33 0 0.66 0 1 0 C1 43.56 1 87.12 1 132 C12.55 132 24.1 132 36 132 C36 114.51 36 97.02 36 79 C43.88121369 76.74822466 43.88121369 76.74822466 48.66015625 76.76953125 C50.21295288 76.77146484 50.21295288 76.77146484 51.79711914 76.7734375 C53.41348267 76.79277344 53.41348267 76.79277344 55.0625 76.8125 C56.16907959 76.81894531 57.27565918 76.82539062 58.41577148 76.83203125 C66.32187191 76.90613104 74.12458872 77.27582425 82 78 C82 69.75 82 61.5 82 53 C67.48 53 52.96 53 38 53 C37.67 52.34 37.34 51.68 37 51 C52.18 51 67.36 51 83 51 C83 60.57 83 70.14 83 80 C67.82 80 52.64 80 37 80 C37 97.82 37 115.64 37 134 C24.46 134 11.92 134 -1 134 C-1.24956592 112.79135293 -1.24956592 112.79135293 -1.35546875 103.58398438 C-1.42706929 97.35960913 -1.49894984 91.13523823 -1.57275391 84.91088867 C-2.04361849 45.13802195 -2.04361849 45.13802195 -2.05859375 30.23828125 C-2.06036621 29.3053273 -2.06213867 28.37237335 -2.06396484 27.41114807 C-2.03392077 6.10176231 -2.03392077 6.10176231 0 0 Z " fill="#6DAB25" transform="translate(707,861)"/>
<path d="M0 0 C3.21819472 2.41364604 4.28779498 4.02446642 5.5 7.875 C5.78633962 12.79483535 5.22565469 15.93361013 2.1875 19.875 C-2.55377011 23.40338706 -7.74334707 23.45169511 -13.5 22.875 C-17.26740467 21.23699797 -19.33277744 19.33165945 -21.5 15.875 C-22.16650172 12.14814453 -22.10861558 8.60968649 -21.5 4.875 C-15.98146792 -2.38622643 -8.35965098 -2.68703067 0 0 Z " fill="#F76604" transform="translate(659.5,1102.125)"/>
<path d="M0 0 C4.06809488 2.05709614 6.20387836 3.74602769 8 8 C8.59076626 11.98969543 8.38648044 15.08465159 6.8125 18.8125 C3.99443195 22.21361661 1.89994306 23.73603844 -2.55859375 24.35546875 C-7.1179466 24.58436435 -10.85171798 24.70983473 -14.5625 21.8125 C-18.17089282 17.64896982 -19.22613779 14.96348905 -19 9.5 C-18.46889847 6.00406795 -17.91676168 4.88976547 -15.6875 1.9375 C-11.15620803 -1.24100335 -5.25495837 -0.84871468 0 0 Z " fill="#F76604" transform="translate(572,1101)"/>
<path d="M0 0 C0.66 0 1.32 0 2 0 C2 6.27 2 12.54 2 19 C1.34 19 0.68 19 0 19 C0 12.73 0 6.46 0 0 Z " fill="#35C834" transform="translate(422,597)"/>
</svg>
